<svg width="26" height="23" viewBox="0 0 26 23" fill="none" xmlns="http://www.w3.org/2000/svg">
<path d="M13 0.333344C12.8457 0.333363 12.693 0.363985 12.5506 0.423437C12.4082 0.482889 12.2791 0.56999 12.1706 0.679698L0.403666 10.9473C0.330177 11.0015 0.270447 11.0722 0.229286 11.1538C0.188125 11.2353 0.166684 11.3253 0.166687 11.4167C0.166687 11.5714 0.228145 11.7198 0.337541 11.8292C0.446938 11.9386 0.595311 12 0.75002 12H3.66669V21.3333C3.66669 21.9773 4.18935 22.5 4.83335 22.5H9.50002C10.144 22.5 10.6667 21.9773 10.6667 21.3333V14.3333H15.3334V21.3333C15.3334 21.9773 15.856 22.5 16.5 22.5H21.1667C21.8107 22.5 22.3334 21.9773 22.3334 21.3333V12H25.25C25.4047 12 25.5531 11.9386 25.6625 11.8292C25.7719 11.7198 25.8334 11.5714 25.8334 11.4167C25.8334 11.3253 25.8119 11.2353 25.7708 11.1538C25.7296 11.0722 25.6699 11.0015 25.5964 10.9473L13.8363 0.686534C13.834 0.684246 13.8317 0.681967 13.8294 0.679698C13.721 0.56999 13.5918 0.482889 13.4494 0.423437C13.3071 0.363985 13.1543 0.333363 13 0.333344Z" fill="#0038FF"/>
</svg>
