<svg width="24" height="24" viewBox="0 0 24 24" fill="none" xmlns="http://www.w3.org/2000/svg">
<path d="M6.16669 0.333344C5.52269 0.333344 5.00002 0.85601 5.00002 1.50001C5.00002 2.14401 5.52269 2.66668 6.16669 2.66668H21.3334V13.1667C21.3334 13.8107 21.856 14.3333 22.5 14.3333C23.144 14.3333 23.6667 13.8107 23.6667 13.1667V2.66668C23.6667 1.37751 22.6225 0.333344 21.3334 0.333344H6.16669ZM2.66669 5.00001C1.38335 5.00001 0.344748 6.05001 0.344748 7.33334L0.335633 22.0147C0.334466 23.0542 1.59217 23.5768 2.32717 22.8418L5.00002 20.1667H16.6667C17.95 20.1667 19 19.1167 19 17.8333V7.33334C19 6.05001 17.95 5.00001 16.6667 5.00001H2.66669Z" fill="#191919"/>
</svg>
